<?xml version="1.0" standalone="no"?>
<!DOCTYPE svg PUBLIC "-//W3C//DTD SVG 20010904//EN"
 "http://www.w3.org/TR/2001/REC-SVG-20010904/DTD/svg10.dtd">
<svg version="1.0" xmlns="http://www.w3.org/2000/svg"
 width="623.000000pt" height="411.000000pt" viewBox="0 0 623.000000 411.000000"
 preserveAspectRatio="xMidYMid meet">

<g transform="translate(0.000000,411.000000) scale(0.100000,-0.100000)"
fill="#FFFFFF" stroke="none">
<path d="M1325 2519 c-186 -491 -248 -648 -263 -668 -18 -25 -27 -31 -72 -49
-19 -8 0 -11 88 -11 61 -1 112 1 112 4 0 3 -11 10 -25 15 -14 5 -25 17 -25 27
0 10 16 66 36 126 l36 108 111 -3 111 -3 44 -110 c24 -60 43 -122 43 -137 l0
-28 100 0 c96 0 123 11 60 23 -20 4 -39 19 -55 44 -14 21 -80 175 -146 343
-120 300 -143 349 -155 319z m44 -275 c23 -63 41 -120 41 -125 0 -5 -41 -9
-91 -9 -69 0 -90 3 -87 13 3 6 22 63 42 125 21 61 41 112 46 112 4 0 26 -52
49 -116z"/>
<path d="M3507 2515 c-76 -27 -117 -84 -117 -165 0 -86 15 -106 208 -282 58
-52 72 -80 72 -139 0 -74 -53 -119 -140 -119 -70 0 -140 53 -140 106 0 38 -17
36 -24 -4 -19 -118 0 -137 144 -137 90 0 100 2 145 30 61 38 95 98 95 168 0
73 -31 128 -108 195 -37 31 -92 82 -124 113 -53 51 -58 60 -58 98 0 23 5 51
10 62 41 76 220 60 237 -21 10 -52 23 -44 23 14 0 31 0 59 1 63 1 12 -85 33
-136 32 -27 0 -67 -6 -88 -14z"/>
<path d="M3872 2517 c-11 -14 -31 -115 -24 -121 2 -3 14 9 26 26 26 39 48 46
159 47 l87 1 0 -311 c0 -309 -4 -349 -35 -349 -7 0 -17 -4 -20 -10 -4 -6 39
-10 122 -10 86 0 123 3 113 10 -8 5 -25 10 -37 10 -12 0 -27 9 -33 19 -6 12
-10 135 -10 330 l0 311 78 0 c109 0 151 -13 159 -51 10 -52 24 -31 21 32 l-3
61 -265 -1 c-146 -1 -279 3 -297 8 -22 7 -35 6 -41 -2z"/>
<path d="M2952 2512 c-129 -1 -201 -6 -197 -12 3 -6 15 -10 25 -10 10 0 26 -7
34 -16 14 -13 16 -56 16 -320 0 -197 -4 -312 -11 -325 -6 -11 -20 -24 -32 -29
-14 -5 53 -9 180 -9 128 -1 204 3 208 9 4 6 9 36 12 67 5 41 3 54 -5 49 -7 -4
-12 -16 -12 -26 0 -37 -47 -60 -124 -60 -47 0 -79 5 -92 15 -28 19 -35 78 -27
210 l6 105 56 0 c83 0 125 -15 137 -47 10 -26 11 -23 18 35 5 35 6 66 3 68 -3
3 -14 1 -25 -5 -12 -6 -59 -11 -106 -11 l-86 0 0 135 0 135 74 0 c96 0 125
-11 133 -50 3 -17 9 -28 13 -23 10 10 19 113 11 116 -3 1 -97 1 -209 -1z"/>
<path d="M4808 2513 c-121 -2 -198 -7 -198 -13 0 -6 10 -10 23 -10 46 0 47 -6
47 -340 0 -332 -1 -343 -45 -353 -11 -3 71 -5 182 -6 227 -1 219 -4 223 74 3
61 0 64 -20 18 -22 -49 -50 -58 -152 -51 -86 6 -88 11 -88 185 l0 143 59 0
c93 0 121 -9 136 -43 10 -23 13 -26 19 -12 3 9 6 39 6 66 0 46 -1 49 -19 39
-11 -5 -60 -10 -110 -10 l-91 0 0 135 0 135 78 0 c84 0 125 -14 130 -45 7 -35
22 -41 22 -9 0 16 3 46 6 67 4 20 3 36 -2 35 -5 -2 -98 -4 -206 -5z"/>
<path d="M1790 2500 c0 -5 11 -10 24 -10 49 0 51 -11 51 -329 0 -163 -3 -308
-8 -323 -4 -17 -15 -28 -29 -30 -12 -2 -23 -7 -25 -13 -5 -16 421 -19 435 -3
11 14 28 128 18 128 -3 0 -12 -15 -19 -32 -23 -55 -40 -63 -138 -63 -79 0 -91
3 -111 23 -23 22 -23 26 -26 312 -4 308 -1 330 43 330 13 0 27 5 30 10 4 6
-38 10 -119 10 -77 0 -126 -4 -126 -10z"/>
</g>
</svg>
