<?xml version="1.0" standalone="no"?>
<!DOCTYPE svg PUBLIC "-//W3C//DTD SVG 20010904//EN"
 "http://www.w3.org/TR/2001/REC-SVG-20010904/DTD/svg10.dtd">
<svg version="1.0" xmlns="http://www.w3.org/2000/svg"
 width="1192.000000pt" height="658.000000pt" viewBox="0 0 1192.000000 658.000000"
 preserveAspectRatio="xMidYMid meet">

<g transform="translate(0.000000,658.000000) scale(0.100000,-0.100000)"
fill="#DBCEBE" stroke="none">
<path d="M5218 6070 c-379 -4 -510 -8 -519 -17 -15 -15 -6 -19 65 -27 66 -8
96 -25 120 -66 21 -34 21 -47 21 -820 0 -830 -2 -861 -46 -909 -11 -11 -32
-23 -47 -26 -52 -11 -76 -20 -76 -30 -1 -6 89 -10 249 -11 138 -1 340 -7 450
-14 220 -13 294 -8 319 19 27 30 66 303 46 316 -16 10 -18 5 -36 -61 -33 -128
-85 -163 -255 -173 -136 -8 -265 1 -304 20 -48 23 -73 70 -80 152 -3 39 -5
214 -3 387 l3 315 130 3 c150 3 281 -10 326 -33 35 -18 59 -67 59 -119 0 -36
17 -57 30 -36 4 6 10 66 14 133 4 67 11 140 16 162 12 53 -1 64 -40 32 -44
-37 -79 -42 -320 -42 l-215 0 0 370 0 370 210 0 c193 0 214 -2 257 -22 53 -24
67 -45 83 -122 6 -30 16 -56 22 -58 13 -5 15 8 33 167 16 142 16 143 5 144 -5
1 -238 -1 -517 -4z"/>
<path d="M2266 5998 c-8 -18 -48 -125 -89 -238 -42 -113 -148 -403 -237 -645
-329 -897 -292 -805 -348 -867 -42 -47 -66 -58 -142 -67 -39 -4 -55 -10 -55
-21 0 -13 35 -15 258 -15 143 0 264 3 269 6 20 13 -4 29 -41 29 -23 0 -48 8
-62 19 -20 16 -24 27 -22 70 1 29 6 66 12 84 26 90 164 484 173 494 8 10 78
13 288 13 l278 0 16 -41 c59 -148 226 -591 226 -601 0 -6 -8 -20 -17 -30 -31
-35 -5 -40 234 -45 201 -5 230 -4 241 10 15 18 13 18 -73 32 -90 15 -143 63
-207 189 -39 77 -142 337 -404 1019 -119 309 -224 578 -233 597 -22 47 -48 51
-65 8z m125 -693 c66 -185 117 -341 113 -346 -7 -12 -471 -12 -479 0 -3 5 28
112 69 238 41 125 89 273 106 328 39 122 48 141 62 127 6 -6 64 -162 129 -347z"/>
<path d="M6674 5810 c-170 -18 -288 -88 -355 -212 -33 -61 -34 -66 -34 -179 0
-113 1 -117 37 -191 48 -96 134 -190 291 -315 159 -127 237 -207 273 -279 25
-50 29 -71 29 -139 -1 -92 -15 -127 -78 -193 -57 -58 -124 -82 -232 -82 -127
0 -221 41 -279 122 -29 40 -56 122 -56 171 0 38 -26 35 -34 -4 -3 -17 -6 -94
-6 -170 0 -157 -8 -142 100 -179 46 -15 100 -23 185 -27 198 -9 343 37 447
140 90 90 135 214 125 347 -8 96 -32 161 -90 242 -59 82 -121 141 -298 281
-80 63 -162 134 -182 156 -76 85 -100 170 -73 263 37 130 167 193 337 163 140
-24 200 -74 223 -186 7 -35 17 -64 23 -66 17 -6 23 35 23 173 l0 131 -57 12
c-52 9 -92 14 -213 25 -19 2 -67 0 -106 -4z"/>
<path d="M7370 5795 c-6 -7 -23 -72 -38 -143 -20 -100 -24 -134 -15 -143 9 -9
17 0 37 38 35 69 84 110 143 119 26 4 134 8 238 8 l190 1 0 -685 c0 -732 -2
-761 -48 -780 -12 -5 -39 -11 -59 -15 -22 -3 -38 -12 -38 -19 0 -18 561 -18
567 0 2 7 -23 15 -68 22 -96 14 -117 35 -130 128 -5 40 -8 342 -7 709 l3 640
200 -3 c291 -3 322 -16 340 -135 5 -30 12 -47 21 -47 11 0 14 29 14 149 0 83
-3 152 -8 155 -4 2 -36 -2 -71 -10 -96 -22 -1131 -15 -1208 8 -42 13 -54 14
-63 3z"/>
<path d="M9885 5783 c-33 -12 -108 -14 -455 -11 -271 2 -416 0 -418 -7 -1 -5
21 -13 49 -17 62 -8 100 -33 116 -79 16 -47 18 -1264 2 -1358 -15 -82 -48
-121 -104 -121 -25 0 -35 -4 -33 -12 4 -10 105 -14 451 -16 l446 -3 14 23 c21
32 52 257 38 271 -16 16 -26 0 -46 -67 -31 -111 -85 -136 -288 -136 -131 1
-199 19 -231 63 -20 27 -21 40 -21 345 l0 317 170 -3 c94 -1 185 -7 203 -13
41 -13 58 -40 67 -101 5 -29 12 -48 20 -48 9 0 15 28 20 98 3 53 10 121 16
151 5 29 6 57 3 62 -3 5 -18 -1 -34 -12 -41 -31 -95 -38 -293 -39 l-177 0 2
303 3 302 125 3 c69 2 161 -2 205 -8 95 -12 118 -30 136 -105 25 -97 49 -82
49 31 0 39 5 96 11 128 7 34 8 60 3 65 -5 5 -27 2 -49 -6z"/>
<path d="M3410 5716 c0 -9 20 -16 61 -20 75 -9 105 -34 114 -97 3 -24 5 -334
3 -689 -3 -591 -4 -648 -20 -677 -22 -39 -32 -46 -83 -53 -30 -4 -40 -10 -40
-23 0 -16 29 -18 463 -22 276 -3 471 -1 481 5 22 11 36 61 51 178 17 134 -3
166 -35 57 -19 -66 -63 -119 -113 -137 -25 -9 -91 -13 -197 -13 -146 0 -164 2
-206 23 -90 44 -93 74 -94 782 0 561 0 576 20 610 18 30 29 37 80 48 82 19 87
21 80 31 -3 6 -120 10 -285 10 -226 0 -280 -2 -280 -13z"/>
<path d="M7478 3129 c-10 -5 -22 -18 -28 -29 -9 -17 -7 -17 20 -7 23 9 41 8
77 -2 85 -24 88 -24 121 4 38 32 43 52 7 29 -24 -15 -30 -15 -83 0 -67 18 -90
20 -114 5z"/>
<path d="M5555 3085 c-42 -20 -59 -35 -84 -75 -25 -42 -27 -85 -5 -141 l17
-40 -38 -32 c-44 -36 -85 -117 -85 -167 1 -103 97 -190 210 -190 53 0 125 24
167 56 32 24 38 26 57 13 72 -46 111 -59 180 -59 l71 0 -58 24 c-59 24 -127
67 -148 92 -8 10 -2 31 26 87 25 52 36 84 33 108 l-3 34 -60 3 c-54 2 -57 1
-36 -10 41 -22 47 -41 33 -105 -21 -103 -27 -102 -151 23 -136 138 -171 190
-171 257 0 40 5 53 29 78 61 61 180 19 181 -64 0 -16 4 -26 10 -22 6 3 10 32
10 65 0 56 -1 58 -31 69 -44 15 -118 13 -154 -4z m74 -417 l123 -127 -33 -20
c-64 -39 -167 -41 -218 -4 -59 43 -87 146 -57 216 14 35 44 70 55 65 3 -2 62
-60 130 -130z"/>
<path d="M2219 2987 c-122 -46 -195 -148 -193 -272 1 -105 61 -202 152 -246
66 -32 197 -33 263 -3 55 26 111 80 141 137 32 59 33 194 1 252 -48 89 -129
136 -248 141 -52 3 -93 0 -116 -9z m207 -48 c58 -38 96 -115 102 -203 7 -122
-29 -204 -108 -243 -85 -44 -182 -22 -251 54 -49 54 -64 102 -63 198 0 154 72
229 215 222 51 -2 75 -8 105 -28z"/>
<path d="M3580 2992 c-124 -2 -141 -4 -120 -15 l25 -13 3 -239 c2 -239 2 -240
-20 -257 -22 -17 -18 -18 128 -18 149 0 152 0 158 23 3 12 6 36 5 52 l0 30
-13 -31 c-16 -37 -32 -44 -95 -44 -78 0 -85 11 -89 135 l-4 106 68 -3 c60 -3
70 -6 80 -26 10 -20 12 -21 18 -7 3 9 6 32 6 50 0 33 -1 34 -29 24 -16 -6 -53
-9 -82 -7 l-54 3 0 100 0 100 70 0 c63 0 71 -2 80 -22 15 -36 25 -27 25 22 0
25 -3 44 -7 43 -5 -1 -73 -4 -153 -6z"/>
<path d="M4062 2981 c-109 -37 -173 -121 -180 -235 -8 -126 39 -208 152 -266
66 -33 74 -35 170 -35 72 1 112 6 139 17 l37 17 0 99 c0 99 7 123 40 135 8 3
-25 6 -75 6 -79 1 -87 -1 -65 -12 24 -12 25 -18 28 -108 3 -116 -2 -123 -92
-122 -146 1 -250 101 -263 253 -14 150 71 241 224 239 91 0 153 -24 175 -67
25 -51 28 -50 28 15 l0 61 -63 11 c-94 16 -194 13 -255 -8z"/>
<path d="M4665 2768 c-107 -283 -108 -286 -148 -303 -30 -14 -28 -14 53 -14
68 0 81 2 63 11 -29 14 -29 17 4 111 l28 78 83 -3 84 -3 34 -84 c19 -47 34
-91 34 -98 0 -9 19 -13 73 -13 l72 0 -31 19 c-18 11 -39 29 -47 42 -9 12 -57
127 -108 255 -51 129 -96 234 -99 234 -4 0 -47 -105 -95 -232z m114 24 c17
-46 31 -90 31 -98 0 -11 -15 -14 -65 -14 -36 0 -65 3 -65 7 0 14 62 194 65
191 2 -2 18 -41 34 -86z"/>
<path d="M7328 3000 c-1 -3 -5 -122 -8 -265 l-5 -259 -25 -13 c-22 -11 -14
-13 65 -12 86 0 88 0 58 14 -24 10 -33 21 -37 47 -6 39 -18 358 -13 358 2 0
99 -97 217 -215 118 -118 218 -215 222 -215 4 0 8 114 8 253 0 259 2 277 40
290 8 3 -23 5 -70 5 -47 0 -75 -3 -63 -5 43 -8 46 -25 51 -230 l5 -195 -221
224 c-122 122 -222 221 -224 218z"/>
<path d="M8160 2992 c-124 -2 -141 -4 -120 -15 l25 -13 3 -236 c2 -233 2 -237
-20 -257 l-22 -21 147 0 147 0 10 26 c6 14 10 37 9 52 l-1 27 -13 -29 c-7 -17
-21 -33 -31 -37 -34 -13 -109 -10 -132 7 -20 14 -22 23 -22 120 l0 105 67 -3
c59 -3 69 -6 79 -26 11 -22 12 -21 18 15 10 62 9 64 -20 53 -14 -6 -52 -10
-85 -10 l-59 0 0 105 0 105 61 0 c70 0 99 -12 100 -43 1 -21 1 -21 9 3 10 33
12 81 3 78 -5 -1 -73 -4 -153 -6z"/>
<path d="M9349 2987 c-122 -46 -195 -148 -193 -272 1 -105 61 -202 152 -246
66 -32 197 -33 263 -3 55 26 111 80 141 137 32 59 33 194 1 252 -48 89 -129
136 -248 141 -52 3 -93 0 -116 -9z m207 -48 c58 -38 96 -115 102 -203 7 -122
-29 -204 -108 -243 -85 -44 -182 -22 -251 54 -49 54 -64 102 -63 198 0 154 72
229 215 222 51 -2 75 -8 105 -28z"/>
<path d="M9971 2983 c-65 -32 -88 -108 -54 -180 9 -19 48 -62 87 -96 39 -33
79 -72 88 -86 44 -65 -1 -151 -79 -151 -52 0 -102 32 -109 70 -9 42 -24 27
-24 -24 0 -51 11 -63 68 -72 135 -21 239 65 218 181 -8 42 -61 104 -138 162
-80 61 -98 114 -53 158 46 47 151 28 162 -29 6 -26 7 -27 14 -11 4 11 8 34 8
51 1 27 -3 32 -30 38 -55 11 -123 6 -158 -11z"/>
<path d="M1550 2978 l25 -14 3 -237 c2 -230 2 -237 -19 -258 l-21 -21 128 4
c107 3 135 7 162 23 101 60 99 206 -3 261 -19 10 -35 20 -35 21 0 1 11 18 24
38 47 69 42 135 -13 172 -21 14 -51 18 -151 21 -109 3 -122 1 -100 -10z m201
-34 c29 -26 42 -88 29 -130 -14 -41 -35 -54 -89 -54 l-41 0 0 98 c0 54 3 102
8 106 11 12 72 -1 93 -20z m18 -231 c41 -31 63 -78 64 -135 1 -68 -31 -98
-103 -98 -74 0 -80 10 -80 147 l0 116 46 -6 c26 -2 58 -14 73 -24z"/>
<path d="M2760 2979 c13 -6 28 -15 32 -22 9 -14 11 -411 2 -455 -3 -17 -15
-34 -28 -39 -34 -16 256 -27 322 -13 80 18 141 65 180 139 27 54 32 73 32 134
-1 128 -60 211 -178 247 -53 17 -91 20 -226 19 -116 0 -154 -3 -136 -10z m303
-35 c108 -37 174 -146 164 -270 -7 -89 -38 -141 -107 -177 -50 -26 -62 -28
-138 -25 -69 2 -86 6 -98 22 -11 16 -14 65 -14 236 0 119 3 220 7 223 13 13
140 7 186 -9z"/>
<path d="M6329 2972 c32 -16 42 -34 138 -267 57 -137 108 -254 113 -259 11
-11 36 39 151 303 83 191 96 215 123 227 29 12 26 13 -49 12 -44 0 -72 -2 -62
-5 11 -3 17 -14 16 -31 -1 -32 -141 -387 -153 -387 -6 0 -141 322 -162 388 -4
12 2 20 18 26 17 7 -3 10 -72 10 l-95 1 34 -18z"/>
<path d="M6977 2980 c31 -13 36 -50 32 -285 -4 -203 -4 -207 -28 -226 l-23
-19 93 0 c90 1 93 1 62 15 l-33 14 0 244 c0 243 0 244 23 255 18 9 5 11 -63
11 -59 0 -78 -3 -63 -9z"/>
<path d="M8490 2978 l25 -14 3 -239 c2 -229 2 -241 -17 -256 -19 -16 -12 -17
122 -24 183 -9 263 11 328 82 128 137 90 361 -74 434 -47 21 -69 24 -232 27
-154 2 -176 1 -155 -10z m325 -45 c91 -48 138 -127 137 -233 0 -114 -52 -195
-139 -219 -65 -18 -167 -14 -194 8 -24 19 -24 23 -27 221 -2 112 -1 214 3 227
6 25 7 25 93 21 62 -3 98 -10 127 -25z"/>
<path d="M846 1580 c-3 -8 -19 -124 -35 -257 -16 -134 -33 -248 -36 -254 -4
-6 -17 -14 -29 -19 -14 -6 4 -9 59 -9 54 0 73 3 59 9 -12 4 -23 14 -26 22 -7
20 24 350 33 341 4 -4 46 -84 94 -178 48 -93 93 -176 100 -183 10 -11 30 22
110 185 54 109 100 191 102 182 2 -8 12 -96 21 -195 l17 -179 80 -2 c72 -1 76
0 42 9 -26 7 -41 18 -48 35 -5 13 -20 120 -34 236 -14 117 -29 226 -34 242 -8
28 -16 15 -117 -192 -59 -123 -111 -223 -115 -223 -3 0 -48 81 -98 181 -123
240 -139 267 -145 249z"/>
<path d="M1710 1580 c-125 -4 -140 -7 -117 -17 l27 -13 0 -234 c0 -229 -1
-236 -22 -256 l-22 -20 151 0 151 0 6 31 c3 17 6 41 5 53 -1 18 -2 17 -13 -7
-18 -40 -32 -47 -98 -47 -82 0 -88 9 -88 136 l0 104 56 0 c62 0 93 -12 95 -38
2 -21 16 34 18 66 1 19 -2 21 -18 12 -11 -5 -49 -10 -85 -10 l-66 0 0 105 0
105 64 0 c67 0 95 -14 97 -48 1 -25 17 27 18 61 1 15 -2 26 -6 25 -5 -1 -73
-5 -153 -8z"/>
<path d="M2805 1358 c-106 -282 -108 -286 -148 -303 -30 -14 -28 -14 53 -14
63 0 79 3 62 10 -20 8 -23 13 -17 41 4 18 17 58 29 88 l22 55 83 0 83 0 34
-84 c19 -47 34 -91 34 -98 0 -10 19 -13 73 -13 68 1 70 1 42 14 -40 17 -65 66
-160 311 -43 110 -83 206 -90 213 -9 10 -30 -37 -100 -220z m114 23 c17 -47
31 -91 31 -98 0 -9 -18 -13 -66 -13 -49 0 -65 3 -61 13 2 6 17 51 33 99 15 48
29 86 30 85 1 -1 16 -40 33 -86z"/>
<path d="M3288 1590 c-1 -3 -5 -122 -8 -265 l-5 -259 -25 -13 c-22 -11 -14
-13 65 -12 52 1 80 4 65 8 -14 4 -30 18 -36 31 -6 14 -14 106 -18 205 l-6 180
218 -218 c119 -119 221 -217 225 -217 4 0 7 114 7 253 0 138 4 257 8 263 4 6
16 16 27 22 16 9 3 11 -65 11 -80 0 -83 -1 -54 -13 29 -13 31 -18 37 -76 4
-35 7 -126 7 -204 l-1 -141 -219 225 c-120 124 -220 223 -222 220z"/>
<path d="M4142 1572 c-73 -26 -122 -69 -156 -135 -59 -115 -42 -234 47 -324
64 -63 136 -88 232 -81 164 14 268 125 269 288 1 118 -48 196 -152 242 -64 29
-174 33 -240 10z m186 -31 c78 -40 119 -108 129 -215 6 -72 -14 -157 -49 -201
-44 -56 -135 -78 -222 -54 -144 40 -207 284 -108 418 50 67 172 92 250 52z"/>
<path d="M4786 1580 c-38 -12 -66 -38 -83 -79 -28 -67 4 -132 108 -216 77 -62
104 -108 94 -156 -9 -40 -49 -69 -96 -69 -57 0 -90 19 -110 65 l-19 40 0 -57
c0 -54 1 -56 31 -67 82 -28 192 1 229 61 27 44 27 120 0 163 -11 18 -42 50
-68 71 -101 80 -122 105 -122 145 0 48 36 79 92 79 51 0 75 -14 92 -53 l14
-32 1 51 c1 50 0 52 -30 58 -42 8 -97 6 -133 -4z"/>
<path d="M6065 1358 c-106 -282 -108 -286 -148 -303 -30 -14 -28 -14 53 -14
63 0 79 3 62 10 -20 8 -23 13 -17 41 4 18 17 58 29 88 l22 55 83 0 83 0 34
-84 c19 -47 34 -91 34 -98 0 -10 19 -13 73 -13 68 1 70 1 42 14 -40 17 -65 66
-160 311 -43 110 -83 206 -90 213 -9 10 -30 -37 -100 -220z m114 23 c17 -47
31 -91 31 -98 0 -9 -18 -13 -66 -13 -49 0 -65 3 -61 13 2 6 17 51 33 99 15 48
29 86 30 85 1 -1 16 -40 33 -86z"/>
<path d="M7287 1579 c-151 -35 -238 -172 -207 -323 27 -132 133 -213 292 -223
61 -4 99 -1 140 11 66 19 68 23 68 148 0 78 2 88 22 102 21 15 17 16 -67 15
-70 0 -84 -3 -64 -10 31 -11 39 -40 39 -133 0 -89 -12 -101 -97 -100 -80 1
-126 18 -181 68 -83 75 -111 225 -60 324 44 87 167 124 289 88 60 -17 85 -38
99 -82 l8 -29 1 30 c1 17 4 46 7 66 l6 36 -76 12 c-88 13 -165 13 -219 0z"/>
<path d="M7905 1580 c-82 -3 -140 -8 -128 -12 39 -11 45 -49 41 -276 -3 -212
-3 -214 -27 -233 -24 -20 -24 -20 130 -17 l154 3 2 45 c1 25 0 38 -4 30 -15
-38 -36 -50 -90 -50 -91 0 -93 3 -93 130 l0 110 54 0 c63 0 86 -7 86 -25 0 -8
5 -17 10 -20 6 -4 10 14 10 46 0 41 -3 50 -12 41 -7 -7 -40 -12 -80 -12 l-68
0 0 105 0 105 56 0 c60 0 94 -13 94 -35 0 -7 4 -16 9 -19 5 -3 11 15 13 40 2
25 1 46 -2 47 -3 1 -72 0 -155 -3z"/>
<path d="M8266 1580 c-3 -8 -7 -127 -8 -265 l-3 -249 -25 -13 c-22 -11 -14
-13 65 -12 72 1 84 3 58 10 -17 5 -34 17 -37 27 -2 9 -8 100 -11 202 l-7 185
215 -219 c128 -131 219 -216 226 -212 8 5 11 83 11 261 l0 254 28 15 c26 14
23 15 -58 15 -80 0 -83 -1 -54 -13 l31 -14 6 -137 c4 -76 7 -168 6 -204 l0
-66 -219 225 c-151 155 -221 220 -224 210z"/>
<path d="M8915 1580 c-1 -3 -6 -25 -10 -50 l-8 -45 31 33 c30 32 33 33 104 30
l73 -3 3 -190 c4 -238 -2 -293 -31 -305 -15 -6 9 -9 73 -9 90 0 93 0 63 14
l-33 14 0 241 0 240 66 0 c73 0 101 -11 114 -43 7 -17 9 -11 9 28 l1 50 -226
0 c-124 0 -227 -2 -229 -5z"/>
<path d="M9858 1590 c-1 -3 -5 -122 -8 -265 l-5 -259 -25 -13 c-22 -11 -14
-13 65 -12 52 1 80 4 65 8 -14 4 -30 18 -36 31 -6 14 -14 106 -18 205 l-6 180
218 -218 c119 -119 221 -217 225 -217 4 0 7 114 7 253 0 138 4 257 8 263 4 6
16 16 27 22 16 9 3 11 -65 11 -80 0 -83 -1 -54 -13 29 -13 31 -18 37 -76 4
-35 7 -126 7 -204 l-1 -141 -219 225 c-120 124 -220 223 -222 220z"/>
<path d="M10686 1498 c-19 -51 -64 -167 -98 -258 -59 -154 -66 -166 -98 -182
l-35 -18 85 1 c61 0 79 3 63 9 -29 12 -29 18 3 112 l26 78 83 0 83 0 33 -82
c18 -45 32 -90 32 -100 -2 -16 7 -18 75 -18 73 1 75 2 47 14 -17 7 -38 24 -47
38 -9 13 -57 128 -108 254 -50 126 -95 233 -100 237 -4 5 -24 -33 -44 -85z
m63 -124 c17 -47 31 -89 31 -95 0 -5 -29 -9 -65 -9 -36 0 -65 4 -65 8 0 5 11
42 25 83 33 98 34 99 39 99 2 0 18 -38 35 -86z"/>
<path d="M2038 1565 l32 -14 0 -234 c0 -239 -3 -258 -40 -269 -26 -8 268 -20
312 -13 185 31 287 229 205 398 -56 114 -145 147 -387 147 -142 -1 -152 -2
-122 -15z m288 -30 c104 -31 174 -127 174 -239 0 -168 -79 -242 -250 -234 -67
3 -84 7 -96 23 -11 15 -14 65 -14 235 0 119 3 220 7 223 12 12 129 7 179 -8z"/>
<path d="M6531 1569 c15 -5 30 -20 33 -32 10 -36 7 -434 -3 -461 -6 -13 -18
-26 -28 -29 -10 -3 25 -5 77 -4 52 0 85 2 73 4 -38 7 -47 31 -51 129 l-4 94
50 0 51 0 79 -103 c44 -57 92 -108 107 -115 14 -7 54 -12 88 -12 l62 1 -36 13
c-46 16 -66 31 -115 86 -88 98 -118 141 -108 154 74 101 89 159 55 213 -38 61
-60 68 -216 70 -104 2 -133 0 -114 -8z m220 -35 c54 -27 75 -117 45 -189 -17
-39 -39 -48 -112 -43 l-49 3 -3 109 c-1 61 0 116 2 123 7 18 80 17 117 -3z"/>
<path d="M9507 1568 c12 -6 24 -20 27 -32 8 -29 8 -372 0 -430 -5 -36 -12 -50
-28 -56 -14 -6 12 -9 74 -9 90 0 93 0 63 14 l-33 14 0 240 c0 237 0 240 22
255 21 15 17 16 -62 15 -67 0 -80 -3 -63 -11z"/>
<path d="M5367 1333 c-4 -3 -7 -17 -7 -31 0 -19 4 -23 18 -17 9 4 55 14 102
22 47 9 89 20 95 24 5 5 -36 9 -96 9 -58 0 -109 -3 -112 -7z"/>
</g>
</svg>
