<?xml version="1.0" standalone="no"?>
<!DOCTYPE svg PUBLIC "-//W3C//DTD SVG 20010904//EN"
 "http://www.w3.org/TR/2001/REC-SVG-20010904/DTD/svg10.dtd">
<svg version="1.0" xmlns="http://www.w3.org/2000/svg"
 width="385.000000pt" height="230.000000pt" viewBox="0 0 385.000000 230.000000"
 preserveAspectRatio="xMidYMid meet">

<g transform="translate(0.000000,230.000000) scale(0.100000,-0.100000)"
fill="#DBCEBE" stroke="none">
<path d="M3090 2079 c-65 -43 -204 -113 -317 -158 -114 -44 -430 -149 -551
-182 -109 -29 -155 -61 -236 -163 -87 -110 -172 -189 -285 -264 -119 -80 -202
-119 -402 -191 -276 -99 -324 -125 -536 -289 -78 -60 -157 -119 -175 -130
l-33 -20 -95 20 c-106 22 -166 20 -207 -8 l-28 -19 110 -6 c105 -5 162 -20
150 -39 -3 -4 -61 -38 -130 -74 -145 -76 -212 -119 -196 -124 24 -8 93 21 326
140 l110 57 70 -9 c108 -14 297 -12 461 6 168 18 258 14 338 -17 52 -19 55
-22 50 -48 -14 -67 39 -100 175 -111 88 -7 105 -12 200 -59 57 -28 118 -51
135 -51 33 0 66 17 140 74 55 41 81 44 137 15 23 -11 43 -18 46 -15 3 2 -18
47 -46 99 -28 52 -51 106 -51 119 0 30 122 152 216 215 106 72 172 102 348
154 121 37 249 96 383 178 160 97 237 127 363 140 l65 7 -34 18 c-74 40 -245
-12 -470 -141 -180 -103 -262 -139 -466 -204 -225 -72 -375 -145 -465 -225
l-61 -54 -72 2 c-67 1 -78 -2 -138 -35 -36 -20 -79 -37 -95 -37 -16 0 -67 12
-113 25 -104 31 -237 33 -573 10 -123 -9 -281 -15 -353 -13 l-129 3 64 50
c136 107 308 224 379 260 171 85 350 99 367 28 8 -29 -8 -49 -55 -71 l-36 -16
43 -4 c24 -2 73 4 108 13 60 15 68 15 119 -1 74 -24 113 -11 200 66 37 33 74
60 80 60 7 0 32 -9 56 -20 49 -22 84 -25 94 -10 10 16 -10 35 -71 70 -38 21
-54 36 -54 51 0 21 -40 66 -93 104 l-28 20 21 42 c12 23 78 101 147 173 148
154 175 169 436 249 207 63 402 133 482 173 130 65 255 164 239 189 -8 14 -15
11 -64 -22z"/>
</g>
</svg>
